<svg width="12" height="16" viewBox="0 0 12 16" fill="none" xmlns="http://www.w3.org/2000/svg">
<path d="M11.4276 12.5693H10.999V6.49783C10.999 3.97819 9.13652 1.89604 6.71331 1.54961V0.854972C6.71331 0.460329 6.39367 0.140686 5.99902 0.140686C5.60438 0.140686 5.28474 0.460329 5.28474 0.854972V1.54961C2.86152 1.89604 0.999023 3.97819 0.999023 6.49783V12.5693H0.570452C0.254381 12.5693 -0.000976562 12.8246 -0.000976562 13.1407V13.7121C-0.000976562 13.7907 0.0633092 13.855 0.141881 13.855H3.99902C3.99902 14.9585 4.89545 15.855 5.99902 15.855C7.1026 15.855 7.99902 14.9585 7.99902 13.855H11.8562C11.9347 13.855 11.999 13.7907 11.999 13.7121V13.1407C11.999 12.8246 11.7437 12.5693 11.4276 12.5693ZM5.99902 14.7121C5.52581 14.7121 5.14188 14.3282 5.14188 13.855H6.85617C6.85617 14.3282 6.47224 14.7121 5.99902 14.7121ZM2.28474 12.5693V6.49783C2.28474 5.50497 2.67045 4.57283 3.37224 3.87104C4.07402 3.16926 5.00617 2.78354 5.99902 2.78354C6.99188 2.78354 7.92402 3.16926 8.62581 3.87104C9.32759 4.57283 9.71331 5.50497 9.71331 6.49783V12.5693H2.28474Z" fill="white"/>
</svg>
